<svg width="240" height="160" xmlns="http://www.w3.org/2000/svg" viewBox="0 0 240 160" role="img" aria-label="PARAHIGG"><defs><linearGradient id="g" gradientUnits="userSpaceOnUse" x1="29" y1="20" x2="211" y2="90"><stop offset="0" stop-color="#16234a"/><stop offset="0.45" stop-color="#233d78"/><stop offset="1" stop-color="#6f9de6"/></linearGradient></defs><rect x="29" y="47" width="182" height="7" fill="url(#g)"/><rect x="90" y="20" width="14" height="120" fill="url(#g)"/><rect x="136" y="20" width="14" height="120" fill="url(#g)"/><rect x="104" y="80" width="32" height="12" fill="url(#g)"/><path d="M50 54 L30 106 M50 54 L70 106" fill="none" stroke="url(#g)" stroke-width="4.2" stroke-linecap="round"/><path d="M30 106 L70 106 A20 24 0 0 1 30 106 Z" fill="none" stroke="url(#g)" stroke-width="4.2" stroke-linejoin="round"/><path d="M190 54 L170 106 M190 54 L210 106" fill="none" stroke="url(#g)" stroke-width="4.2" stroke-linecap="round"/><path d="M170 106 L210 106 A20 24 0 0 1 170 106 Z" fill="none" stroke="url(#g)" stroke-width="4.2" stroke-linejoin="round"/></svg>